<svg xmlns="http://www.w3.org/2000/svg" width="512" height="512" fill="none" viewBox="0 0 512 512"><path fill="#253461" stroke="#253461" stroke-miterlimit="10" d="M476.248 47.533q0-2.037 0 0Zm0 0L394.926 28.52v90.992h71.835zm-219.57 6.79c4.066 0 8.132 0 12.198-1.358 16.265-6.79 24.397-17.655 25.752-33.952-1.355-5.432 0-6.79 0-8.148 2.711-2.716 5.422-4.075 9.488-4.075h82.678c62.347 14.94 96.231 23.088 98.942 23.088 6.777 1.358 10.843 4.074 9.487 10.865-1.355 14.939-5.421 43.459-10.843 86.917-1.355 6.791-4.066 10.865-10.843 10.865h-78.611v152.106c0 4.075-1.356 8.149-4.066 9.507v1.358c5.421 2.716 4.066 8.149 4.066 13.581v28.52c10.843 46.175 23.041 95.066 36.595 148.032q2.033 6.111 0 8.148c-2.711 5.433-5.422 5.433-10.843 5.433H271.587c-5.422 0-8.132-2.717-9.488-8.149-2.71-6.79-4.066-10.865-5.421-12.223 0 1.358-2.711 5.433-5.422 12.223-2.71 5.432-4.066 8.149-9.487 8.149H92.678c-5.422 0-9.488-1.359-10.843-5.433-1.355-1.358 0-4.074 0-8.148 13.554-52.966 24.397-103.215 36.595-148.032v-28.52c0-5.432 0-10.865 4.066-13.581v-1.358c-2.711-2.716-4.066-5.432-4.066-9.507V138.525H39.818c-6.776 0-9.487-2.716-10.843-10.865-6.777-43.458-9.487-71.978-12.198-86.917-1.355-6.79 4.066-9.507 9.488-10.865 2.71 0 36.595-8.148 98.942-23.088h82.678c4.066 0 6.776 0 9.487 4.075 1.355 1.358 1.355 2.716 1.355 6.79 1.356 16.297 9.488 28.52 25.753 33.952 2.71 1.358 6.776 2.717 12.198 2.717Zm0 228.16h119.273V25.803h-65.058c-5.422 27.162-27.108 46.176-54.215 47.534-27.108-1.358-48.793-20.372-54.215-47.533H136.05v256.679h120.628ZM45.24 119.512h71.835V28.52L35.752 47.533zm332.066 196.923H136.05v13.581h239.901v-13.581zM256.678 454.96c4.066 0 6.777 1.358 9.487 4.074 1.356 4.075 5.422 12.223 10.843 27.162h135.538l-32.529-137.167H133.339L100.81 486.196h135.537c5.422-13.581 9.488-23.087 10.843-27.162 1.356-2.716 5.422-4.074 9.488-4.074Z"/></svg>